<?xml version="1.0" encoding="UTF-8"?>
<!DOCTYPE svg PUBLIC "-//W3C//DTD SVG 1.1//EN" "http://www.w3.org/Graphics/SVG/1.1/DTD/svg11.dtd">
<!-- Creator: CorelDRAW X7 -->
<svg xmlns="http://www.w3.org/2000/svg" xml:space="preserve" width="64.8667in" height="11.6in" version="1.1" style="shape-rendering:geometricPrecision; text-rendering:geometricPrecision; image-rendering:optimizeQuality; fill-rule:evenodd; clip-rule:evenodd"
viewBox="0 0 610213 109123"
 xmlns:xlink="http://www.w3.org/1999/xlink">
 <defs>
  <style type="text/css">
   <![CDATA[
    .str0 {stroke:white;stroke-width:97.9977}
    .fil0 {fill:none}
    .fil5 {fill:#404137}
    .fil7 {fill:#53C1DE}
    .fil6 {fill:#83CD29}
    .fil1 {fill:#AAC148}
    .fil2 {fill:white}
    .fil4 {fill:white;fill-opacity:0.101961}
    .fil3 {fill:url(#id0)}
   ]]>
  </style>
  <linearGradient id="id0" gradientUnits="userSpaceOnUse" x1="198005" y1="26497.4" x2="192572" y2="31034.2">
   <stop offset="0" style="stop-opacity:1; stop-color:#DEDEDE"/>
   <stop offset="0.0313725" style="stop-opacity:1; stop-color:#DEDEDE"/>
   <stop offset="0.0784314" style="stop-opacity:1; stop-color:#C9C9C9"/>
   <stop offset="0.211765" style="stop-opacity:1; stop-color:#959595"/>
   <stop offset="0.34902" style="stop-opacity:1; stop-color:#676767"/>
   <stop offset="0.478431" style="stop-opacity:1; stop-color:#424242"/>
   <stop offset="0.611765" style="stop-opacity:1; stop-color:#252525"/>
   <stop offset="0.74902" style="stop-opacity:1; stop-color:#101010"/>
   <stop offset="0.870588" style="stop-opacity:1; stop-color:#040404"/>
   <stop offset="1" style="stop-opacity:1; stop-color:black"/>
  </linearGradient>
 </defs>
 <g id="Layer_x0020_1">
  <metadata id="CorelCorpID_0Corel-Layer"/>
  <rect class="fil0" width="610213" height="109123"/>
  <g id="_2589961575040">
   <g>
    <path class="fil1" d="M83388 36043l-16821 8214c-375,183 -530,635 -347,1009l6888 14106c183,374 635,530 1009,347l2999 -1464 2321 4753c539,1103 1869,1561 2973,1022l0 0c1103,-538 1560,-1869 1021,-2972l-2321 -4754 2794 -1364 2321 4754c539,1103 1869,1560 2972,1022l0 0c1103,-539 1561,-1870 1022,-2973l-2321 -4754 3041 -1484c374,-183 529,-635 346,-1009l-6888 -14106c-183,-374 -634,-530 -1009,-347z"/>
    <path class="fil1" d="M63040 45976l0 0c-1103,538 -1561,1869 -1022,2972l3961 8112c538,1103 1869,1561 2972,1022l0 0c1103,-539 1561,-1869 1022,-2972l-3961 -8112c-539,-1103 -1869,-1561 -2972,-1022z"/>
    <path class="fil1" d="M86912 34318l0 0c-1103,539 -1560,1870 -1022,2973l3961 8112c539,1103 1870,1560 2973,1022l0 0c1103,-539 1561,-1870 1022,-2973l-3961 -8112c-539,-1103 -1870,-1560 -2973,-1022z"/>
    <path class="fil1" d="M66220 43202l16509 -8062c431,-211 559,-764 264,-1143 -1817,-2336 -4545,-3720 -7412,-3889l167 -3236c12,-219 -157,-406 -376,-417 -219,-11 -406,157 -417,376l-169 3260c-1429,29 -2874,360 -4243,1029 -1369,668 -2519,1604 -3420,2713l-2675 -1871c-180,-126 -427,-82 -553,97 -126,180 -82,428 98,554l2655 1857c-1630,2365 -2216,5368 -1491,8237 117,465 632,705 1063,495zm11328 -10232c207,424 31,935 -393,1143 -424,207 -936,31 -1143,-393 -207,-424 -31,-936 393,-1143 424,-207 936,-31 1143,393zm-9460 3669c424,-207 935,-32 1142,392 207,424 32,936 -393,1143 -423,207 -935,31 -1142,-393 -207,-424 -31,-935 393,-1142z"/>
   </g>
   <g>
   </g>
   <g>
   </g>
   <g>
   </g>
   <g>
   </g>
   <g>
   </g>
   <g>
   </g>
   <g>
   </g>
   <g>
   </g>
   <g>
   </g>
   <g>
   </g>
   <g>
   </g>
   <g>
   </g>
   <g>
   </g>
   <g>
   </g>
   <g>
   </g>
  </g>
  <g id="_2589961585376">
   <path class="fil2" d="M196688 37812l2227 -12647 -12669 -2234 -3053 2144 -3386 -1567 -12068 4369 4358 12037 3388 1582 292 3740 9835 8247 8374 -9881 -375 -3675 3077 -2115zm-13466 -12160l9687 1835 -8912 6266 -9983 -4625 9208 -3476zm-7241 15561l-3264 -9305 9946 4643 948 10856 -7630 -6194zm10655 6032l-944 -10988 8996 -6272 -1640 9755 -6412 7505z"/>
   <polygon class="fil3" points="198682,25318 197295,33330 198521,25435 191895,24202 "/>
   <path class="fil4" d="M172673 26090l6475 1100 4074 -1538 9687 1835 -4250 2988 2911 1684 3118 -2174 -631 3750c0,0 2185,1528 2956,2234l1902 -10804 -12669 -2234 -3053 2144 -3386 -1567 -7134 2582z"/>
   <path class="fil2" d="M199576 39816l2888 1348 -3787 8112c0,0 -1052,1895 3953,1845l3787 -8112 2853 1332 -5375 11515 -2166 -1011 108 -1038c0,0 -4038,41 -5823,-1337 -1785,-1377 -898,-3098 -802,-3304 96,-207 4364,-9350 4364,-9350z"/>
   <path class="fil2" d="M215107 61145l-2887 -1348 3786 -8112c0,0 1052,-1895 -3953,-1845l-3786 8112 -2853 -1331 5375 -11516 2165 1011 -108 1038c0,0 4038,-40 5824,1337 1785,1377 898,3098 801,3304 -96,207 -4364,9350 -4364,9350z"/>
   <rect class="fil2" transform="matrix(1.0692 0.499078 -0.499078 1.0692 223968 45047.5)" width="2668" height="3151"/>
   <rect class="fil2" transform="matrix(1.0692 0.499078 -0.499078 1.0692 221610 50100.4)" width="2668" height="10813"/>
   <path class="fil2 str0" d="M226971 52603l1353 -2887 3098 926 -1523 3328 2952 1377 -1256 2181 -2785 -1291 -2922 6324c0,0 -618,1322 2221,1681l-729 2424c0,0 -5980,-563 -4748,-4766l3275 -7027 -1745 -804 1064 -2281 1745 815 0 0z"/>
   <polygon class="fil2" points="233427,55617 236387,56998 234981,66944 241647,59453 244688,60873 231860,74630 229093,73339 232744,69378 231675,68879 "/>
  </g>
  <g id="_2589961587392">
   <path class="fil5" d="M387324 81106l0 -3304c0,-227 119,-268 275,-357 151,-87 260,-147 402,-229 363,-209 2376,-1407 2481,-1407 121,0 2096,1155 2433,1358 144,87 240,143 402,230 120,66 324,161 324,307l0 3451c0,143 -230,231 -337,294 -128,76 -262,148 -401,231 -266,160 -2299,1362 -2413,1356l-2818 -1598c-123,-73 -348,-165 -348,-332zm6123 -11177l-195 0c-138,0 -2034,-1196 -2338,-1307 -763,-280 -1470,402 -2506,982l-2345 1348c-251,144 -514,287 -772,444 -263,159 -492,293 -769,445l-2370 1372c-142,84 -248,138 -371,212 -338,204 -824,433 -824,1072l0 9817c0,915 1004,1198 2057,1831l4312 2491c213,123 395,236 614,358 2672,1487 2197,1694 3906,716 420,-240 807,-460 1233,-711l6197 -3570c436,-262 829,-458 829,-1164l0 -24347c0,-829 -590,-1011 -1116,-1315l-3115 -1744c-260,-150 -524,-291 -777,-438 -328,-189 -617,-391 -921,-391 -641,0 -486,902 -486,1312l0 11907c2,287 34,680 -243,680z"/>
   <path class="fil6" d="M355444 74254l0 9962c0,288 126,489 278,646 228,236 288,232 569,402 423,256 817,459 1234,711 1675,1014 3796,2193 5546,3201 203,117 396,227 613,359 1012,613 1243,810 2035,339 2626,-1561 5539,-3134 8134,-4695 476,-286 738,-496 738,-1254l0 -9282c0,-1206 -687,-1294 -1916,-2021l-3736 -2144c-442,-247 -818,-479 -1264,-729l-1880 -1084c-619,-335 -798,-437 -1507,-49 -207,114 -402,228 -616,356l-4258 2448c-219,123 -408,242 -617,356l-1849 1066c-210,121 -409,224 -621,352 -394,239 -883,448 -883,1060z"/>
   <path class="fil5" d="M329882 74254l0 17 0 9787c13,2007 41,3552 95,3660 82,166 294,269 481,261 228,-9 809,-385 1025,-509 161,-92 319,-198 488,-289l3460 -1983c312,-188 680,-321 827,-777 174,-539 -119,-6267 120,-6878 181,-462 1248,-940 1823,-1288 165,-100 319,-188 494,-283 535,-293 317,-260 955,-260 202,0 1553,820 1801,969 980,591 1165,523 1163,1655 -2,1863 11,3728 -1,5590 -3,393 86,750 388,973l2675 1553c295,159 559,334 860,501l1329 760c122,70 352,218 481,250 377,94 683,-196 683,-636l0 -13024c0,-937 -1015,-1215 -2050,-1838l-4931 -2844c-226,-124 -386,-229 -615,-357 -219,-123 -408,-242 -617,-356 -1509,-816 -1197,-849 -2658,-33 -1147,641 -7692,4382 -7975,4660 -160,157 -301,419 -301,719z"/>
   <path class="fil5" d="M406374 74594l0 9477c0,699 341,921 775,1169 407,232 806,476 1234,709 2032,1110 4165,2408 6188,3531 1406,781 1202,898 2952,-140 1138,-675 2610,-1410 3750,-2082 233,-138 554,-273 554,-612 0,-281 -199,-436 -387,-535l-3521 -2020c-222,-131 -406,-222 -620,-351 -398,-239 -772,-434 -1173,-675l-2934 -1682c-201,-119 -452,-228 -452,-520l0 -3159c0,-327 324,-438 648,-615 297,-161 538,-309 830,-482 255,-150 1486,-895 1681,-895 235,0 1127,595 1394,744l1391 795c524,283 373,743 373,1766 0,423 -77,1288 107,1497 391,443 829,19 1206,-185l4695 -2740c242,-180 407,-454 407,-856l0 -2382c0,-248 -129,-530 -255,-668 -203,-221 -3861,-2286 -4244,-2511l-4269 -2486c-904,-541 -1166,-162 -2054,335l-7520 4337c-472,284 -756,497 -756,1236z"/>
   <path class="fil6" d="M431741 74594l0 9136c0,1188 897,1603 1798,2090 1198,648 2471,1626 4161,953 307,-122 521,-311 715,-548 440,-534 567,-1209 567,-1960l0 -8845c0,-473 -425,-340 -1263,-340 -131,0 -134,23 -243,49 -126,538 -49,7395 -49,8553 0,489 60,950 -128,1281 -728,1288 -2518,-186 -3339,-633l-555 -320c-99,-62 -157,-40 -157,-182l0 -9331c0,-188 765,-568 940,-664 1591,-869 3562,-2051 5180,-2983 242,-139 1972,-1164 2093,-1164 188,0 883,432 1066,537 176,100 322,197 521,306 188,102 337,193 523,303 700,414 1383,777 2066,1189l3639 2096c133,80 446,215 446,380l0 9331c0,176 -768,570 -940,663 -371,202 -696,407 -1052,600 -344,186 -676,389 -1018,586l-3116 1793c-330,199 -681,403 -1018,586 -1477,800 -757,755 -2203,-32 -1671,-910 -821,-737 -1920,-301 -248,99 -567,187 -785,333 222,330 2236,1412 2719,1703 1237,746 1769,292 3183,-564l5121 -2946c1284,-778 2536,-1111 2536,-2519l0 -9233c0,-576 -321,-1072 -666,-1327 -197,-146 -388,-260 -598,-374l-6964 -4018c-767,-429 -1370,-884 -2351,-389l-1914 1100c-1082,653 -6060,3401 -6480,3822 -348,348 -515,748 -515,1283z"/>
   <path class="fil6" d="M439954 77413c0,1622 1163,2092 2555,2353 920,173 3811,234 3811,1097 0,707 -67,1111 -1097,1333 -799,172 -2754,175 -3473,-358 -600,-446 -359,-1315 -727,-1315l-1117 0c-531,0 -412,3207 3644,3207 956,0 1662,33 2562,-305 1036,-388 1755,-984 1867,-2219 120,-1317 -497,-1989 -1628,-2366 -1066,-354 -2349,-423 -3453,-629 -810,-151 -1292,-217 -1292,-895 0,-1346 2734,-1120 3532,-859 506,167 764,522 922,1022 174,548 65,468 1232,468 221,0 254,-103 389,-194 0,-1537 -1043,-2486 -2450,-2799 -2019,-449 -5277,-65 -5277,2459z"/>
   <path class="fil6" d="M414101 78288l0 1943c0,161 612,441 865,593 1218,732 792,619 1953,-9 176,-96 875,-428 875,-632l0 -1798c0,-301 -414,-427 -829,-678 -1166,-703 -806,-780 -2689,367 -96,59 -175,80 -175,214z"/>
  </g>
  <g id="_2589961589984">
   <path class="fil2" d="M520996 46808c0,3293 3215,6366 8284,8099 -1012,5095 -181,9203 2593,10803 2853,1645 7102,506 11135,-3019 3931,3383 7905,4714 10677,3109 2849,-1649 3716,-6035 2676,-11290 5279,-1745 8232,-4366 8232,-7702 0,-3216 -3220,-5998 -8221,-7720 1120,-5471 171,-9479 -2719,-11145 -2786,-1607 -6805,-207 -10794,3265 -4150,-3685 -8130,-4810 -11017,-3139 -2783,1612 -3578,5793 -2562,10983 -4898,1708 -8284,4553 -8284,7756z"/>
   <path class="fil7" d="M555313 40798c-402,-138 -818,-269 -1246,-393 70,-287 135,-571 192,-850 944,-4580 327,-8269 -1780,-9484 -2019,-1165 -5323,50 -8659,2953 -321,279 -642,575 -964,885 -214,-205 -428,-404 -642,-593 -3496,-3104 -7001,-4413 -9105,-3194 -2018,1168 -2616,4636 -1766,8977 82,419 178,847 286,1282 -496,141 -975,291 -1433,451 -4099,1429 -6717,3669 -6717,5992 0,2400 2810,4806 7080,6266 337,115 686,224 1047,327 -117,471 -219,932 -304,1382 -810,4265 -178,7652 1835,8813 2079,1198 5567,-34 8965,-3003 268,-235 537,-484 807,-745 350,337 700,656 1047,955 3291,2832 6541,3975 8551,2811 2077,-1202 2752,-4840 1876,-9266 -67,-338 -145,-684 -232,-1035 245,-73 485,-148 720,-225 4438,-1471 7326,-3848 7326,-6280 0,-2332 -2702,-4587 -6884,-6026l0 0 0 0z"/>
   <path class="fil2" d="M554350 51534c-211,70 -429,138 -650,203 -490,-1551 -1151,-3201 -1961,-4905 773,-1664 1409,-3292 1885,-4833 396,114 780,235 1151,363 3583,1233 5768,3057 5768,4462 0,1497 -2360,3440 -6193,4710l0 0 0 0zm-1590 3151c388,1957 443,3726 186,5110 -230,1243 -694,2072 -1267,2404 -1221,706 -3830,-212 -6644,-2634 -323,-278 -648,-574 -974,-888 1091,-1193 2182,-2580 3246,-4120 1872,-167 3640,-438 5244,-809 79,319 149,631 209,937l0 0 0 0zm-16081 7391c-1192,421 -2142,434 -2716,103 -1221,-705 -1729,-3424 -1036,-7071 79,-418 174,-847 282,-1286 1586,351 3342,603 5218,755 1071,1508 2193,2893 3324,4107 -247,238 -493,465 -738,679 -1502,1313 -3007,2245 -4334,2713l0 0 0 0zm-5585 -10551c-1888,-646 -3447,-1484 -4516,-2400 -960,-822 -1445,-1638 -1445,-2301 0,-1410 2102,-3208 5607,-4430 426,-149 871,-288 1333,-420 485,1576 1120,3224 1887,4890 -777,1691 -1421,3365 -1910,4960 -330,-95 -649,-195 -956,-299l0 0 0 0zm1872 -12744c-728,-3719 -244,-6524 972,-7228 1295,-750 4159,319 7178,3000 193,171 387,351 581,536 -1125,1208 -2236,2583 -3298,4082 -1821,169 -3564,440 -5167,803 -101,-406 -190,-804 -266,-1193l0 0 0 0zm16701 4124c-383,-662 -776,-1308 -1177,-1936 1235,156 2419,363 3530,617 -333,1069 -749,2187 -1239,3334 -351,-667 -723,-1339 -1114,-2015l0 0 0 0zm-6810 -6634c762,827 1527,1750 2278,2751 -757,-36 -1524,-55 -2297,-55 -766,0 -1527,19 -2279,54 752,-992 1523,-1914 2298,-2750l0 0 0 0zm-6855 6645c-383,664 -747,1333 -1093,2002 -482,-1142 -894,-2265 -1230,-3350 1105,-247 2283,-449 3510,-602 -407,634 -803,1285 -1187,1950l0 0 0 0zm1222 9884c-1268,-141 -2464,-333 -3568,-573 342,-1104 763,-2251 1255,-3418 347,669 713,1338 1098,2003l0 0c392,678 798,1341 1215,1988l0 0 0 0zm5678 4694c-784,-846 -1566,-1782 -2329,-2788 741,29 1497,44 2265,44 789,0 1569,-18 2337,-52 -754,1024 -1515,1961 -2273,2796l0 0 0 0zm7895 -8745c517,1180 954,2321 1300,3406 -1123,256 -2335,462 -3612,616 402,-637 799,-1294 1189,-1970 394,-684 769,-1369 1123,-2052l0 0 0 0zm-2556 1225c-605,1050 -1226,2052 -1857,2997 -1149,82 -2336,125 -3546,125 -1205,0 -2377,-38 -3505,-111 -657,-958 -1292,-1963 -1893,-3002l0 0c-600,-1036 -1152,-2080 -1652,-3119 500,-1042 1051,-2087 1647,-3122l0 1c598,-1037 1227,-2037 1877,-2989 1152,-87 2333,-133 3526,-133l0 0c1199,0 2381,46 3532,134 640,945 1265,1942 1866,2979 607,1048 1165,2087 1669,3106 -503,1037 -1059,2086 -1664,3134l0 0 0 0zm3412 -18470c1297,747 1801,3763 986,7717 -52,252 -110,509 -174,770 -1606,-371 -3350,-647 -5177,-818 -1063,-1515 -2166,-2892 -3273,-4085 298,-286 595,-559 891,-816 2858,-2488 5530,-3470 6747,-2768l0 0 0 0z"/>
   <path class="fil7" d="M542838 43367c1910,0 3458,1548 3458,3457 0,1910 -1548,3457 -3458,3457 -1909,0 -3457,-1547 -3457,-3457 0,-1909 1548,-3457 3457,-3457z"/>
  </g>
 </g>
</svg>
